<svg id="Layer_1" data-name="Layer 1" xmlns="http://www.w3.org/2000/svg" viewBox="0 0 231.33 40.65">
  <g>
    <g>
      <path d="M19.15,42.49a8.33,8.33,0,0,1-8.32-8.32V22.05H27.47V34.17A8.33,8.33,0,0,1,19.15,42.49Z" transform="translate(-10.33 -2.34)" style="fill: #fff"/>
      <path d="M27,22.55V34.17a7.82,7.82,0,0,1-15.64,0V22.55H27m1-1H10.33V34.17A8.82,8.82,0,0,0,19.15,43h0A8.82,8.82,0,0,0,28,34.17V21.55Z" transform="translate(-10.33 -2.34)" style="fill: #020055"/>
    </g>
    <path d="M9,2.78H9a8.62,8.62,0,0,1,8.62,8.62V26a0,0,0,0,1,0,0H0a0,0,0,0,1,0,0V11.8A9,9,0,0,1,9,2.78Z" style="fill: #020055"/>
    <rect x="6.41" y="0.58" width="4.81" height="2.6" style="fill: #020055"/>
    <ellipse cx="8.82" cy="0.68" rx="2.5" ry="0.6" style="fill: #020055;stroke: #fff;stroke-miterlimit: 10;stroke-width: 0.15028294744710236px"/>
    <path d="M21.06,16.31a2,2,0,0,1-.73-1.93,2.57,2.57,0,0,1,.2-.72c-1-.07-2.05,1.14-2.47,2.85a4.56,4.56,0,0,0-.17,1.16,4.35,4.35,0,0,0,.41,2.21,3.49,3.49,0,0,0,.8,1.19,4.48,4.48,0,0,1-1.92-1.59,4,4,0,0,1-.9-2.71A5,5,0,1,0,24,21.56,5.28,5.28,0,0,0,21.06,16.31Z" transform="translate(-10.33 -2.34)" style="fill: #fff"/>
  </g>
  <g>
    <path d="M46.62,13.08,46,20h8.85l-.39,4.43H45.63L44.7,35.05H38.58L40.9,8.49h16l-.4,4.59Z" transform="translate(-10.33 -2.34)" style="fill: #020055"/>
    <path d="M64.24,35.05H58L60.27,8.49h6.3Z" transform="translate(-10.33 -2.34)" style="fill: #020055"/>
    <path d="M82.35,35.05l-3.13-9.71H76.67l-.85,9.71H69.69L72,8.49h9c5.48,0,9.14,2.48,8.68,7.8-.33,3.77-2.16,6-4.88,7.11l4.7,11.65ZM77.06,20.81h2.18c2.42,0,4-1,4.22-3.88s-1.11-4-3.53-4H77.75Z" transform="translate(-10.33 -2.34)" style="fill: #020055"/>
    <path d="M109.38,30.45l-.4,4.6H92.71L95,8.49h16l-.41,4.59h-9.84l-.55,6.3h8.86l-.39,4.43H99.82l-.58,6.64Z" transform="translate(-10.33 -2.34)" style="fill: #020055"/>
  </g>
  <g>
    <path d="M130.65,15.46c-.14,1.53-.36,2.88-.63,4.41h.14a46.43,46.43,0,0,1,3.3-4.41l6.4-7.29h7.8L136.51,19.42l8.82,15.82h-7.74L131.91,24l-2.2,2.22-.79,9H122.6L125,8.17h6.32Z" transform="translate(-10.33 -2.34)" style="fill: #020055"/>
    <path d="M154.87,35.24h-6.42l2.37-27.07h6.42Z" transform="translate(-10.33 -2.34)" style="fill: #020055"/>
    <path d="M177.61,30.38l-.43,4.86H160.42l2.37-27.07h6.42l-1.94,22.21Z" transform="translate(-10.33 -2.34)" style="fill: #020055"/>
    <path d="M197.83,30.38l-.42,4.86H180.65L183,8.17h6.42L187.5,30.38Z" transform="translate(-10.33 -2.34)" style="fill: #020055"/>
    <path d="M217.88,30.55l-.42,4.69H200.88l2.37-27.07h16.27l-.41,4.69h-10l-.56,6.42h9l-.39,4.51h-9l-.59,6.76Z" transform="translate(-10.33 -2.34)" style="fill: #020055"/>
    <path d="M234.19,35.24,231,25.35h-2.61l-.86,9.89h-6.25l2.37-27.07h9.13c5.58,0,9.32,2.53,8.84,8-.33,3.85-2.2,6.11-5,7.25l4.79,11.87ZM228.8,20.73H231c2.46,0,4-1.07,4.3-3.95s-1.13-4.1-3.6-4.1H229.5Z" transform="translate(-10.33 -2.34)" style="fill: #020055"/>
  </g>
</svg>
